<svg width="89" height="25" viewBox="0 0 89 25" fill="none" xmlns="http://www.w3.org/2000/svg">
<path d="M11.644 6.3C12.358 6.3 13.037 6.517 13.681 6.951C14.325 7.371 14.843 7.945 15.235 8.673C15.627 9.387 15.823 10.171 15.823 11.025C15.823 11.865 15.627 12.649 15.235 13.377C14.843 14.105 14.325 14.686 13.681 15.12C13.037 15.54 12.358 15.75 11.644 15.75H7.99V19.719C7.99 20.097 7.878 20.405 7.654 20.643C7.43 20.881 7.136 21 6.772 21C6.422 21 6.135 20.881 5.911 20.643C5.687 20.391 5.575 20.083 5.575 19.719V7.581C5.575 7.217 5.694 6.916 5.932 6.678C6.184 6.426 6.492 6.3 6.856 6.3H11.644ZM11.644 13.356C11.91 13.356 12.169 13.244 12.421 13.02C12.687 12.796 12.897 12.509 13.051 12.159C13.219 11.795 13.303 11.417 13.303 11.025C13.303 10.633 13.219 10.262 13.051 9.912C12.897 9.548 12.687 9.261 12.421 9.051C12.169 8.827 11.91 8.715 11.644 8.715H7.99V13.356H11.644ZM27.0088 9.555C27.3728 9.555 27.6738 9.674 27.9118 9.912C28.1498 10.15 28.2688 10.458 28.2688 10.836V19.719C28.2688 20.083 28.1498 20.391 27.9118 20.643C27.6738 20.881 27.3728 21 27.0088 21C26.6448 21 26.3438 20.881 26.1058 20.643C25.8818 20.405 25.7628 20.104 25.7488 19.74C25.3988 20.146 24.9228 20.496 24.3208 20.79C23.7328 21.07 23.1098 21.21 22.4518 21.21C21.4858 21.21 20.6108 20.965 19.8268 20.475C19.0428 19.971 18.4198 19.278 17.9578 18.396C17.5098 17.514 17.2858 16.513 17.2858 15.393C17.2858 14.273 17.5098 13.272 17.9578 12.39C18.4058 11.494 19.0148 10.801 19.7848 10.311C20.5688 9.807 21.4298 9.555 22.3678 9.555C23.0398 9.555 23.6698 9.681 24.2578 9.933C24.8458 10.171 25.3428 10.479 25.7488 10.857V10.836C25.7488 10.472 25.8678 10.171 26.1058 9.933C26.3438 9.681 26.6448 9.555 27.0088 9.555ZM22.7668 18.9C23.6768 18.9 24.4188 18.571 24.9928 17.913C25.5668 17.241 25.8538 16.401 25.8538 15.393C25.8538 14.385 25.5668 13.545 24.9928 12.873C24.4188 12.201 23.6768 11.865 22.7668 11.865C21.8708 11.865 21.1358 12.201 20.5618 12.873C19.9878 13.545 19.7008 14.385 19.7008 15.393C19.7008 16.401 19.9808 17.241 20.5408 17.913C21.1148 18.571 21.8568 18.9 22.7668 18.9ZM36.8378 9.555C37.2578 9.555 37.6078 9.674 37.8878 9.912C38.1818 10.15 38.3288 10.43 38.3288 10.752C38.3288 11.186 38.2168 11.515 37.9928 11.739C37.7688 11.949 37.5028 12.054 37.1948 12.054C36.9848 12.054 36.7468 12.005 36.4808 11.907C36.4388 11.893 36.3408 11.865 36.1868 11.823C36.0468 11.781 35.8928 11.76 35.7248 11.76C35.3608 11.76 35.0108 11.872 34.6748 12.096C34.3388 12.32 34.0588 12.663 33.8348 13.125C33.6248 13.573 33.5198 14.112 33.5198 14.742V19.719C33.5198 20.083 33.4008 20.391 33.1628 20.643C32.9248 20.881 32.6238 21 32.2598 21C31.8958 21 31.5948 20.881 31.3568 20.643C31.1188 20.391 30.9998 20.083 30.9998 19.719V11.046C30.9998 10.682 31.1188 10.381 31.3568 10.143C31.5948 9.891 31.8958 9.765 32.2598 9.765C32.6238 9.765 32.9248 9.891 33.1628 10.143C33.4008 10.381 33.5198 10.682 33.5198 11.046V11.319C33.8418 10.745 34.3038 10.311 34.9058 10.017C35.5078 9.709 36.1518 9.555 36.8378 9.555ZM49.4502 18.795C49.7162 19.075 49.8492 19.39 49.8492 19.74C49.8492 20.09 49.7092 20.384 49.4292 20.622C49.1632 20.86 48.8762 20.979 48.5682 20.979C48.2042 20.979 47.8962 20.839 47.6442 20.559L43.8642 16.569L42.8352 17.514V19.719C42.8352 20.083 42.7162 20.391 42.4782 20.643C42.2402 20.881 41.9392 21 41.5752 21C41.2112 21 40.9102 20.881 40.6722 20.643C40.4342 20.391 40.3152 20.083 40.3152 19.719V6.741C40.3152 6.377 40.4342 6.076 40.6722 5.838C40.9102 5.586 41.2112 5.46 41.5752 5.46C41.9392 5.46 42.2402 5.586 42.4782 5.838C42.7162 6.076 42.8352 6.377 42.8352 6.741V14.511L47.3292 10.164C47.5952 9.898 47.9032 9.765 48.2532 9.765C48.5612 9.765 48.8342 9.898 49.0722 10.164C49.3242 10.416 49.4502 10.675 49.4502 10.941C49.4502 11.277 49.2822 11.592 48.9462 11.886L45.7752 14.805L49.4502 18.795Z" fill="#30475E"/>
<path d="M62.1413 15.12C62.1273 15.456 61.9943 15.729 61.7423 15.939C61.4903 16.149 61.1963 16.254 60.8603 16.254H53.9303C54.0983 17.08 54.4833 17.731 55.0853 18.207C55.6873 18.669 56.3663 18.9 57.1223 18.9C57.6963 18.9 58.1443 18.851 58.4663 18.753C58.7883 18.641 59.0403 18.529 59.2223 18.417C59.4183 18.291 59.5513 18.207 59.6213 18.165C59.8733 18.039 60.1113 17.976 60.3353 17.976C60.6293 17.976 60.8813 18.081 61.0913 18.291C61.3013 18.501 61.4063 18.746 61.4063 19.026C61.4063 19.404 61.2103 19.747 60.8183 20.055C60.4263 20.377 59.9013 20.65 59.2433 20.874C58.5853 21.098 57.9203 21.21 57.2483 21.21C56.0723 21.21 55.0433 20.965 54.1613 20.475C53.2933 19.985 52.6213 19.313 52.1453 18.459C51.6693 17.591 51.4313 16.618 51.4313 15.54C51.4313 14.336 51.6833 13.279 52.1873 12.369C52.6913 11.459 53.3563 10.766 54.1823 10.29C55.0083 9.8 55.8903 9.555 56.8283 9.555C57.7523 9.555 58.6203 9.807 59.4323 10.311C60.2583 10.815 60.9163 11.494 61.4063 12.348C61.8963 13.202 62.1413 14.126 62.1413 15.12ZM56.8283 11.865C55.2043 11.865 54.2453 12.628 53.9513 14.154H59.4533V14.007C59.3973 13.419 59.1103 12.915 58.5923 12.495C58.0743 12.075 57.4863 11.865 56.8283 11.865ZM74.3229 15.12C74.3089 15.456 74.1759 15.729 73.9239 15.939C73.6719 16.149 73.3779 16.254 73.0419 16.254H66.1119C66.2799 17.08 66.6649 17.731 67.2669 18.207C67.8689 18.669 68.5479 18.9 69.3039 18.9C69.8779 18.9 70.3259 18.851 70.6479 18.753C70.9699 18.641 71.2219 18.529 71.4039 18.417C71.5999 18.291 71.7329 18.207 71.8029 18.165C72.0549 18.039 72.2929 17.976 72.5169 17.976C72.8109 17.976 73.0629 18.081 73.2729 18.291C73.4829 18.501 73.5879 18.746 73.5879 19.026C73.5879 19.404 73.3919 19.747 72.9999 20.055C72.6079 20.377 72.0829 20.65 71.4249 20.874C70.7669 21.098 70.1019 21.21 69.4299 21.21C68.2539 21.21 67.2249 20.965 66.3429 20.475C65.4749 19.985 64.8029 19.313 64.3269 18.459C63.8509 17.591 63.6129 16.618 63.6129 15.54C63.6129 14.336 63.8649 13.279 64.3689 12.369C64.8729 11.459 65.5379 10.766 66.3639 10.29C67.1899 9.8 68.0719 9.555 69.0099 9.555C69.9339 9.555 70.8019 9.807 71.6139 10.311C72.4399 10.815 73.0979 11.494 73.5879 12.348C74.0779 13.202 74.3229 14.126 74.3229 15.12ZM69.0099 11.865C67.3859 11.865 66.4269 12.628 66.1329 14.154H71.6349V14.007C71.5789 13.419 71.2919 12.915 70.7739 12.495C70.2559 12.075 69.6679 11.865 69.0099 11.865ZM82.2626 9.555C82.6826 9.555 83.0326 9.674 83.3126 9.912C83.6066 10.15 83.7536 10.43 83.7536 10.752C83.7536 11.186 83.6416 11.515 83.4176 11.739C83.1936 11.949 82.9276 12.054 82.6196 12.054C82.4096 12.054 82.1716 12.005 81.9056 11.907C81.8636 11.893 81.7656 11.865 81.6116 11.823C81.4716 11.781 81.3176 11.76 81.1496 11.76C80.7856 11.76 80.4356 11.872 80.0996 12.096C79.7636 12.32 79.4836 12.663 79.2596 13.125C79.0496 13.573 78.9446 14.112 78.9446 14.742V19.719C78.9446 20.083 78.8256 20.391 78.5876 20.643C78.3496 20.881 78.0486 21 77.6846 21C77.3206 21 77.0196 20.881 76.7816 20.643C76.5436 20.391 76.4246 20.083 76.4246 19.719V11.046C76.4246 10.682 76.5436 10.381 76.7816 10.143C77.0196 9.891 77.3206 9.765 77.6846 9.765C78.0486 9.765 78.3496 9.891 78.5876 10.143C78.8256 10.381 78.9446 10.682 78.9446 11.046V11.319C79.2666 10.745 79.7286 10.311 80.3306 10.017C80.9326 9.709 81.5766 9.555 82.2626 9.555Z" fill="#F05454"/>
</svg>
